HIERARCHY
ROOT Pelvis
{
	OFFSET 0.000000 0.000000 0.000000
	CHANNELS 6 Xposition Yposition Zposition Xrotation Yrotation Zrotation
	JOINT LeftUpLeg_virtual
	{
		OFFSET 0.000000 0.000000 0.000000
		CHANNELS 3 Xrotation Yrotation Zrotation
		JOINT LeftUpLeg
		{
			OFFSET 18.735201 -5.666702 -4.541200
			CHANNELS 3 Xrotation Yrotation Zrotation
			JOINT LeftLeg
			{
				OFFSET -0.021200 -31.938179 0.493100
				CHANNELS 3 Xrotation Yrotation Zrotation
				JOINT LeftFoot
				{
					OFFSET 0.021200 -31.938179 -4.336299
					CHANNELS 3 Xrotation Yrotation Zrotation
					JOINT LeftToeBase
					{
						OFFSET 0.943001 -26.722000 15.023500
						CHANNELS 3 Xrotation Yrotation Zrotation
						End Site
						{
							OFFSET 0 0 0
						}
					}
				}
			}
		}
	}
	JOINT RightUpLeg_virtual
	{
		OFFSET 0.000000 0.000000 0.000000
		CHANNELS 3 Xrotation Yrotation Zrotation
		JOINT RightUpLeg
		{
			OFFSET -18.735201 -5.666702 -4.541200
			CHANNELS 3 Xrotation Yrotation Zrotation
			JOINT RightLeg
			{
				OFFSET 0.018946 -31.938133 0.493100
				CHANNELS 3 Xrotation Yrotation Zrotation
				JOINT RightFoot
				{
					OFFSET -0.018946 -31.938126 -4.336299
					CHANNELS 3 Xrotation Yrotation Zrotation
					JOINT RightToeBase
					{
						OFFSET -0.943001 -26.722004 15.023500
						CHANNELS 3 Xrotation Yrotation Zrotation
						End Site
						{
							OFFSET 0 0 0
						}
					}
				}
			}
		}
	}
	JOINT Hips_virtual
	{
		OFFSET 0.000000 0.000000 0.000000
		CHANNELS 3 Xrotation Yrotation Zrotation
		JOINT Hips
		{
			OFFSET -0.000000 -0.000000 -0.000000
			CHANNELS 3 Xrotation Yrotation Zrotation
			JOINT Spine
			{
				OFFSET 0.000000 10.199997 -0.299500
				CHANNELS 3 Xrotation Yrotation Zrotation
				JOINT Spine1
				{
					OFFSET 0.000000 11.900002 -1.516600
					CHANNELS 3 Xrotation Yrotation Zrotation
					JOINT Spine2
					{
						OFFSET 0.000000 13.600006 -2.842500
						CHANNELS 3 Xrotation Yrotation Zrotation
						JOINT Neck_virtual
						{
							OFFSET 0.000000 0.000000 0.000000
							CHANNELS 3 Xrotation Yrotation Zrotation
							JOINT Neck
							{
								OFFSET 0.000000 9.624100 -2.890100
								CHANNELS 3 Xrotation Yrotation Zrotation
								JOINT Head
								{
									OFFSET 0.000000 14.068802 -1.351900
									CHANNELS 3 Xrotation Yrotation Zrotation
									End Site
									{
										OFFSET 0 0 0
									}
								}
							}
						}
						JOINT LeftShoulder_virtual
						{
							OFFSET 0.000000 0.000000 0.000000
							CHANNELS 3 Xrotation Yrotation Zrotation
							JOINT LeftShoulder
							{
								OFFSET 15.263000 10.923401 -0.547700
								CHANNELS 3 Xrotation Yrotation Zrotation
								JOINT LeftArm
								{
									OFFSET 25.438599 -2.830597 -13.032500
									CHANNELS 3 Xrotation Yrotation Zrotation
									JOINT LeftForeArm
									{
										OFFSET 29.960503 0.000000 0.000000
										CHANNELS 3 Xrotation Yrotation Zrotation
										JOINT LeftHand
										{
											OFFSET 27.849251 0.000000 0.000000
											CHANNELS 3 Xrotation Yrotation Zrotation
											End Site
											{
												OFFSET 0 0 0
											}
										}
									}
								}
							}
						}
						JOINT RightShoulder_virtual
						{
							OFFSET 0.000000 0.000000 0.000000
							CHANNELS 3 Xrotation Yrotation Zrotation
							JOINT RightShoulder
							{
								OFFSET -15.263000 10.923401 -0.547700
								CHANNELS 3 Xrotation Yrotation Zrotation
								JOINT RightArm
								{
									OFFSET -25.438599 -2.830597 -13.032500
									CHANNELS 3 Xrotation Yrotation Zrotation
									JOINT RightForeArm
									{
										OFFSET -29.960503 0.000000 0.000000
										CHANNELS 3 Xrotation Yrotation Zrotation
										JOINT RightHand
										{
											OFFSET -27.849251 0.000000 0.000000
											CHANNELS 3 Xrotation Yrotation Zrotation
											End Site
											{
												OFFSET 0 0 0
											}
										}
									}
								}
							}
						}
					}
				}
			}
		}
	}
}
MOTION
Frames: 7
Frame Time: 0.03333333
-130.489822 35.835976 13.815903 0.000000 0.000000 0.000000 4.640780 1.962973 -43.865070 -128.042305 -2.599250 0.766765 32.092426 -2.122272 3.822886 37.987286 -8.663542 40.230989 0.000000 0.000000 0.000000 4.640780 1.962973 -43.865070 -111.631949 -10.426572 -30.502669 125.463854 10.521984 0.399365 13.901241 29.879291 7.766636 0.000000 0.000000 0.000000 4.640780 1.962973 -43.865070 0.000000 0.000000 0.000002 26.464765 -2.672399 -11.339672 4.544296 1.067062 -3.000534 0.000000 0.000000 0.000000 4.469512 1.152591 -3.102258 -0.818090 0.508255 0.356333 0.000000 0.000000 0.000000 4.469512 1.152591 -3.102258 -0.738569 -20.006918 -16.433099 -50.129227 35.122247 -5.603044 -0.000007 -67.864275 0.000005 0.000000 0.000000 0.000000 4.469512 1.152591 -3.102258 0.572091 17.177629 -1.647715 -40.220699 -36.620551 -13.906588 0.000002 47.792828 -0.000006 0.000000 0.000000 0.000000 
-129.673065 38.198608 11.373291 0.000000 0.000000 0.000000 6.442491 1.664493 -45.695338 -131.238957 -1.764542 -0.682751 40.567670 0.793984 2.228895 33.380142 -7.589000 44.881194 0.000000 0.000000 0.000000 6.442491 1.664493 -45.695338 -107.949029 -14.887970 -28.149960 120.012626 9.742216 0.222320 8.860827 29.793203 10.604768 0.000000 0.000000 0.000000 6.442491 1.664493 -45.695338 0.000000 0.000000 0.000001 25.495512 -4.568045 -11.632330 4.429975 0.562698 -3.087451 0.000000 0.000000 0.000000 4.399094 0.647814 -3.172076 -0.788887 0.595855 0.375753 0.000000 0.000000 0.000000 4.399094 0.647814 -3.172076 0.465881 -18.467182 -14.809602 -53.117340 32.371036 -6.476285 0.000012 -65.498215 0.000006 0.000000 0.000000 0.000000 4.399094 0.647814 -3.172076 0.420655 16.309580 -2.316469 -40.918557 -42.271146 -17.103692 0.000004 49.709789 -0.000001 0.000000 0.000000 0.000000 
-129.032379 40.972858 8.886353 0.000000 0.000000 0.000000 8.951304 1.076754 -48.696964 -141.787173 -0.912281 -2.314786 60.848045 7.883297 0.070612 26.961005 -6.008735 48.527063 0.000000 0.000000 0.000000 8.951304 1.076754 -48.696964 -103.916506 -20.307650 -25.565270 112.205152 8.695503 0.202523 6.366246 28.791146 13.386112 0.000000 0.000000 0.000000 8.951304 1.076754 -48.696964 0.000001 0.000001 0.000001 25.033700 -6.712671 -11.063715 4.340291 -0.053009 -2.926339 0.000000 0.000000 0.000000 4.326355 0.001590 -3.071847 -0.759587 0.668819 0.404820 0.000000 0.000000 0.000000 4.326355 0.001590 -3.071847 1.528359 -17.124230 -13.055621 -56.910953 30.147683 -5.988703 0.000000 -62.567320 -0.000003 0.000000 0.000000 0.000000 4.326355 0.001590 -3.071847 -0.280791 13.602707 -1.925108 -41.602330 -46.076528 -18.868474 -0.000005 51.752135 0.000009 0.000000 0.000000 0.000000 
-128.512817 43.758614 6.194839 0.000000 0.000000 0.000000 11.800105 0.302225 -51.885129 -153.697534 -1.067993 -1.435182 82.841630 14.394325 -2.186980 22.295595 -3.495971 42.730770 0.000000 0.000000 0.000000 11.800105 0.302225 -51.885129 -101.254884 -25.860669 -23.267227 103.475023 7.293316 -0.001641 7.180149 27.872469 15.065447 0.000000 0.000000 0.000000 11.800105 0.302225 -51.885129 -0.000001 -0.000000 0.000002 24.841167 -8.948985 -10.151141 4.268275 -0.667217 -2.683782 0.000000 0.000000 0.000000 4.264228 -0.670726 -2.969955 -0.741751 0.735134 0.425159 0.000000 0.000000 0.000000 4.264228 -0.670726 -2.969955 2.392745 -16.120993 -11.191412 -60.835074 28.365557 -4.762359 -0.000003 -59.974313 0.000001 0.000000 0.000000 0.000000 4.264228 -0.670726 -2.969955 -0.885413 10.812403 -1.433143 -42.789619 -50.514389 -20.264717 -0.000000 53.767959 -0.000017 0.000000 0.000000 0.000000 
-128.101013 46.775978 3.544884 0.000000 0.000000 0.000000 15.263748 -0.358346 -55.039980 -161.420456 -2.583494 0.459290 104.531271 16.826524 -4.367135 15.132477 -0.859995 33.582889 0.000000 0.000000 0.000000 15.263748 -0.358346 -55.039980 -100.326244 -30.014208 -21.410722 92.525677 5.914753 1.701726 15.106041 28.133542 13.871271 0.000000 0.000000 0.000000 15.263748 -0.358346 -55.039980 -0.000001 0.000001 0.000002 24.836362 -11.480031 -9.026789 4.205510 -1.261794 -2.434704 0.000000 0.000000 0.000000 4.214189 -1.329372 -2.877528 -0.738520 0.801605 0.425407 0.000000 0.000000 0.000000 4.214189 -1.329372 -2.877528 3.029240 -15.594206 -9.234376 -64.766832 26.176111 -2.837100 0.000018 -57.078166 0.000012 0.000000 0.000000 0.000000 4.214189 -1.329372 -2.877528 -1.325205 7.928360 -1.159178 -44.246713 -56.483376 -20.238880 0.000009 55.596674 -0.000015 0.000000 0.000000 0.000000 
-128.072479 50.054829 1.850037 0.000000 0.000000 0.000000 19.453291 -0.582594 -57.307343 -158.636649 1.889282 -2.584619 120.896930 22.057377 -5.181904 2.211158 -0.609507 35.290959 0.000000 0.000000 0.000000 19.453291 -0.582594 -57.307343 -97.124122 -29.853145 -20.155470 69.133577 7.537995 6.423622 38.742814 28.914322 18.436532 0.000000 0.000000 0.000000 19.453291 -0.582594 -57.307343 0.000001 0.000000 0.000001 25.179921 -14.361670 -7.787616 4.165094 -1.794361 -2.222880 0.000000 0.000000 0.000000 4.182994 -1.913203 -2.791849 -0.782046 0.866670 0.386905 0.000000 0.000000 0.000000 4.182994 -1.913203 -2.791849 3.452493 -15.644388 -7.199471 -68.283279 23.300980 -1.180868 -0.000013 -53.459679 -0.000015 0.000000 0.000000 0.000000 4.182994 -1.913203 -2.791849 -1.640236 5.009689 -1.013755 -43.524981 -62.670722 -16.827902 -0.000015 57.462955 0.000020 0.000000 0.000000 0.000000 
-127.073456 53.932648 -0.296398 0.000000 0.000000 0.000000 23.360017 -0.606452 -57.450873 -147.973084 2.030269 -1.493991 130.046187 19.590323 -5.349808 -8.067562 2.531655 28.299916 0.000000 0.000000 0.000000 23.360017 -0.606452 -57.450873 -91.123336 -29.407940 -18.581168 47.802312 2.908254 8.021863 53.397405 28.572988 22.788453 0.000000 0.000000 0.000000 23.360017 -0.606452 -57.450873 0.000000 0.000001 0.000000 25.802418 -16.498138 -7.530588 4.149800 -2.215117 -2.142593 0.000000 0.000000 0.000000 4.179183 -2.356010 -2.734713 -0.914266 0.941160 0.261593 0.000000 0.000000 0.000000 4.179183 -2.356010 -2.734713 3.594323 -16.601939 -5.146017 -71.267703 19.758791 -0.642507 0.000004 -49.128441 0.000008 0.000000 0.000000 0.000000 4.179183 -2.356010 -2.734713 -1.646138 3.405822 -0.956108 -38.300911 -67.495246 -9.016838 0.000007 58.357314 0.000007 0.000000 0.000000 0.000000 
